<svg xmlns="http://www.w3.org/2000/svg" viewBox="0 0 320 100" fill="none">
  <!-- Dr. Hala Ali signature — hand-traced from reference -->
  <path
    d="M 20 62 C 22 55, 28 38, 35 35 C 42 32, 40 50, 38 58 C 36 66, 34 68, 36 60 C 38 52, 44 30, 52 28 C 58 26, 56 45, 55 52 C 54 58, 60 28, 68 26 C 76 24, 70 50, 72 55 C 74 60, 80 22, 88 20 C 94 18, 90 40, 92 48 C 94 55, 100 22, 106 25 C 112 28, 108 50, 112 52 M 112 52 C 114 54, 130 55, 140 52 M 150 60 C 152 52, 156 32, 162 30 C 168 28, 166 50, 168 55 C 170 60, 178 28, 185 26 C 192 24, 186 48, 188 55 C 190 60, 200 62, 210 58 M 210 58 C 218 54, 222 52, 228 54"
    stroke="#2D2A33"
    stroke-width="2.2"
    stroke-linecap="round"
    stroke-linejoin="round"
  />
  <!-- Underline flourish -->
  <path
    d="M 15 76 C 40 74, 100 70, 160 72 C 200 73, 230 76, 250 72"
    stroke="#2D2A33"
    stroke-width="1.5"
    stroke-linecap="round"
  />
</svg>
